<?xml version="1.0" encoding="utf-8"?>
<!-- Generator: Adobe Illustrator 18.0.0, SVG Export Plug-In . SVG Version: 6.00 Build 0)  -->
<!DOCTYPE svg PUBLIC "-//W3C//DTD SVG 1.1//EN" "http://www.w3.org/Graphics/SVG/1.1/DTD/svg11.dtd">
<svg version="1.1" id="Capa_1" xmlns="http://www.w3.org/2000/svg" xmlns:xlink="http://www.w3.org/1999/xlink" x="0px" y="0px"
	 viewBox="0.1 184.4 611.8 423.2" enable-background="new 0.1 184.4 611.8 423.2" xml:space="preserve">
<path fill="none" stroke="#000000" stroke-miterlimit="10" d="M0.6,595.3V198.7c0,0,0.4-9.8,10.1-13.8h588.4c0,0,8.6-0.4,12.2,11
	v399.4c0,0-1.2,8.2-9.4,10.1L16,607C16.1,607.1,3.9,605.9,0.6,595.3z"/>
<path fill="none" stroke="#000000" stroke-miterlimit="10" d="M23.5,520.5V217.2c0,0,0.3-7.5,9.4-10.6h545.6c0,0,7.9-0.3,11.3,8.4
	v305.5c0,0-1.1,6.3-8.7,7.8l-543.3,1.2C37.8,529.6,26.5,528.6,23.5,520.5z"/>
</svg>
